<svg id="visual" viewBox="0 0 2160 100" width="2160" height="100" xmlns="http://www.w3.org/2000/svg" xmlns:xlink="http://www.w3.org/1999/xlink" version="1.1"><path d="M0 58L51.5 55.7C103 53.3 206 48.7 308.8 45.8C411.7 43 514.3 42 617.2 40C720 38 823 35 925.8 31.8C1028.7 28.7 1131.3 25.3 1234.2 27.2C1337 29 1440 36 1542.8 39C1645.7 42 1748.3 41 1851.2 37.3C1954 33.7 2057 27.3 2108.5 24.2L2160 21L2160 101L2108.5 101C2057 101 1954 101 1851.2 101C1748.3 101 1645.7 101 1542.8 101C1440 101 1337 101 1234.2 101C1131.3 101 1028.7 101 925.8 101C823 101 720 101 617.2 101C514.3 101 411.7 101 308.8 101C206 101 103 101 51.5 101L0 101Z" fill="#9a4560"></path><path d="M0 69L51.5 69.8C103 70.7 206 72.3 308.8 72.8C411.7 73.3 514.3 72.7 617.2 70.8C720 69 823 66 925.8 66.5C1028.7 67 1131.3 71 1234.2 69.8C1337 68.7 1440 62.3 1542.8 57C1645.7 51.7 1748.3 47.3 1851.2 47.7C1954 48 2057 53 2108.5 55.5L2160 58L2160 101L2108.5 101C2057 101 1954 101 1851.2 101C1748.3 101 1645.7 101 1542.8 101C1440 101 1337 101 1234.2 101C1131.3 101 1028.7 101 925.8 101C823 101 720 101 617.2 101C514.3 101 411.7 101 308.8 101C206 101 103 101 51.5 101L0 101Z" fill="#cc6f8c"></path><path d="M0 69L51.5 70.7C103 72.3 206 75.7 308.8 78.2C411.7 80.7 514.3 82.3 617.2 82C720 81.7 823 79.3 925.8 80.3C1028.7 81.3 1131.3 85.7 1234.2 87.7C1337 89.7 1440 89.3 1542.8 87.8C1645.7 86.3 1748.3 83.7 1851.2 79.3C1954 75 2057 69 2108.5 66L2160 63L2160 101L2108.5 101C2057 101 1954 101 1851.2 101C1748.3 101 1645.7 101 1542.8 101C1440 101 1337 101 1234.2 101C1131.3 101 1028.7 101 925.8 101C823 101 720 101 617.2 101C514.3 101 411.7 101 308.8 101C206 101 103 101 51.5 101L0 101Z" fill="#ff9bba"></path></svg>