<svg id="visual" viewBox="0 0 1450 600" width="1450" height="600" xmlns="http://www.w3.org/2000/svg" xmlns:xlink="http://www.w3.org/1999/xlink" version="1.1"><rect x="0" y="0" width="1450" height="600" fill="#ffffff"></rect><defs><linearGradient id="grad1_0" x1="58.6%" y1="0%" x2="100%" y2="100%"><stop offset="1.6666666666666679%" stop-color="#f369a5" stop-opacity="1"></stop><stop offset="98.33333333333333%" stop-color="#f369a5" stop-opacity="1"></stop></linearGradient></defs><defs><linearGradient id="grad1_1" x1="58.6%" y1="0%" x2="100%" y2="100%"><stop offset="1.6666666666666679%" stop-color="#f369a5" stop-opacity="1"></stop><stop offset="98.33333333333333%" stop-color="#fb9ec2" stop-opacity="1"></stop></linearGradient></defs><defs><linearGradient id="grad1_2" x1="58.6%" y1="0%" x2="100%" y2="100%"><stop offset="1.6666666666666679%" stop-color="#ffcfe0" stop-opacity="1"></stop><stop offset="98.33333333333333%" stop-color="#fb9ec2" stop-opacity="1"></stop></linearGradient></defs><defs><linearGradient id="grad1_3" x1="58.6%" y1="0%" x2="100%" y2="100%"><stop offset="1.6666666666666679%" stop-color="#ffcfe0" stop-opacity="1"></stop><stop offset="98.33333333333333%" stop-color="#ffffff" stop-opacity="1"></stop></linearGradient></defs><defs><linearGradient id="grad2_0" x1="0%" y1="0%" x2="41.4%" y2="100%"><stop offset="1.6666666666666679%" stop-color="#f369a5" stop-opacity="1"></stop><stop offset="98.33333333333333%" stop-color="#f369a5" stop-opacity="1"></stop></linearGradient></defs><defs><linearGradient id="grad2_1" x1="0%" y1="0%" x2="41.4%" y2="100%"><stop offset="1.6666666666666679%" stop-color="#fb9ec2" stop-opacity="1"></stop><stop offset="98.33333333333333%" stop-color="#f369a5" stop-opacity="1"></stop></linearGradient></defs><defs><linearGradient id="grad2_2" x1="0%" y1="0%" x2="41.4%" y2="100%"><stop offset="1.6666666666666679%" stop-color="#fb9ec2" stop-opacity="1"></stop><stop offset="98.33333333333333%" stop-color="#ffcfe0" stop-opacity="1"></stop></linearGradient></defs><defs><linearGradient id="grad2_3" x1="0%" y1="0%" x2="41.4%" y2="100%"><stop offset="1.6666666666666679%" stop-color="#ffffff" stop-opacity="1"></stop><stop offset="98.33333333333333%" stop-color="#ffcfe0" stop-opacity="1"></stop></linearGradient></defs><g transform="translate(1450, 0)"><path d="M0 510C-47.6 455.2 -95.1 400.4 -158.4 382.5C-221.8 364.5 -300.9 383.4 -357.8 357.8C-414.7 332.2 -449.5 262.2 -471.2 195.2C-492.9 128.1 -501.4 64.1 -510 0L0 0Z" fill="#ffe7ef"></path><path d="M0 382.5C-35.7 341.4 -71.3 300.3 -118.8 286.9C-166.3 273.4 -225.6 287.5 -268.3 268.3C-311 249.2 -337.1 196.7 -353.4 146.4C-369.6 96.1 -376.1 48 -382.5 0L0 0Z" fill="#feb7d1"></path><path d="M0 255C-23.8 227.6 -47.6 200.2 -79.2 191.2C-110.9 182.3 -150.4 191.7 -178.9 178.9C-207.4 166.1 -224.8 131.1 -235.6 97.6C-246.4 64.1 -250.7 32 -255 0L0 0Z" fill="#f885b3"></path><path d="M0 127.5C-11.9 113.8 -23.8 100.1 -39.6 95.6C-55.4 91.1 -75.2 95.8 -89.4 89.4C-103.7 83.1 -112.4 65.6 -117.8 48.8C-123.2 32 -125.4 16 -127.5 0L0 0Z" fill="#f369a5"></path></g><g transform="translate(0, 600)"><path d="M0 -510C68.4 -504.9 136.8 -499.9 195.2 -471.2C253.6 -442.5 302 -390.2 337.3 -337.3C372.6 -284.4 394.7 -230.8 421.3 -174.5C447.9 -118.2 478.9 -59.1 510 0L0 0Z" fill="#ffe7ef"></path><path d="M0 -382.5C51.3 -378.7 102.6 -374.9 146.4 -353.4C190.2 -331.9 226.5 -292.7 253 -253C279.4 -213.3 296 -173.1 316 -130.9C335.9 -88.6 359.2 -44.3 382.5 0L0 0Z" fill="#feb7d1"></path><path d="M0 -255C34.2 -252.5 68.4 -249.9 97.6 -235.6C126.8 -221.2 151 -195.1 168.6 -168.6C186.3 -142.2 197.3 -115.4 210.6 -87.3C223.9 -59.1 239.5 -29.5 255 0L0 0Z" fill="#f885b3"></path><path d="M0 -127.5C17.1 -126.2 34.2 -125 48.8 -117.8C63.4 -110.6 75.5 -97.6 84.3 -84.3C93.1 -71.1 98.7 -57.7 105.3 -43.6C112 -29.5 119.7 -14.8 127.5 0L0 0Z" fill="#f369a5"></path></g></svg>