<svg id="visual" viewBox="0 0 1380 600" width="1380" height="600" xmlns="http://www.w3.org/2000/svg" xmlns:xlink="http://www.w3.org/1999/xlink" version="1.1"><rect x="0" y="0" width="1380" height="600" fill="#ffffff"></rect><defs><linearGradient id="grad1_0" x1="56.5%" y1="0%" x2="100%" y2="100%"><stop offset="4.0000000000000036%" stop-color="#f369a5" stop-opacity="1"></stop><stop offset="96%" stop-color="#f369a5" stop-opacity="1"></stop></linearGradient></defs><defs><linearGradient id="grad1_1" x1="56.5%" y1="0%" x2="100%" y2="100%"><stop offset="4.0000000000000036%" stop-color="#f369a5" stop-opacity="1"></stop><stop offset="96%" stop-color="#fb9ec2" stop-opacity="1"></stop></linearGradient></defs><defs><linearGradient id="grad1_2" x1="56.5%" y1="0%" x2="100%" y2="100%"><stop offset="4.0000000000000036%" stop-color="#ffcfe0" stop-opacity="1"></stop><stop offset="96%" stop-color="#fb9ec2" stop-opacity="1"></stop></linearGradient></defs><defs><linearGradient id="grad1_3" x1="56.5%" y1="0%" x2="100%" y2="100%"><stop offset="4.0000000000000036%" stop-color="#ffcfe0" stop-opacity="1"></stop><stop offset="96%" stop-color="#ffffff" stop-opacity="1"></stop></linearGradient></defs><defs><linearGradient id="grad2_0" x1="0%" y1="0%" x2="43.5%" y2="100%"><stop offset="4.0000000000000036%" stop-color="#f369a5" stop-opacity="1"></stop><stop offset="96%" stop-color="#f369a5" stop-opacity="1"></stop></linearGradient></defs><defs><linearGradient id="grad2_1" x1="0%" y1="0%" x2="43.5%" y2="100%"><stop offset="4.0000000000000036%" stop-color="#fb9ec2" stop-opacity="1"></stop><stop offset="96%" stop-color="#f369a5" stop-opacity="1"></stop></linearGradient></defs><defs><linearGradient id="grad2_2" x1="0%" y1="0%" x2="43.5%" y2="100%"><stop offset="4.0000000000000036%" stop-color="#fb9ec2" stop-opacity="1"></stop><stop offset="96%" stop-color="#ffcfe0" stop-opacity="1"></stop></linearGradient></defs><defs><linearGradient id="grad2_3" x1="0%" y1="0%" x2="43.5%" y2="100%"><stop offset="4.0000000000000036%" stop-color="#ffffff" stop-opacity="1"></stop><stop offset="96%" stop-color="#ffcfe0" stop-opacity="1"></stop></linearGradient></defs><g transform="translate(1380, 0)"><path d="M0 510C-50.2 466.8 -100.5 423.5 -168.4 406.5C-236.3 389.5 -321.9 398.7 -360.6 360.6C-399.4 322.5 -391.3 237.1 -408.4 169.1C-425.4 101.2 -467.7 50.6 -510 0L0 0Z" fill="#ffe7ef"></path><path d="M0 382.5C-37.7 350.1 -75.4 317.6 -126.3 304.9C-177.2 292.1 -241.4 299 -270.5 270.5C-299.5 241.9 -293.4 177.9 -306.3 126.9C-319.1 75.9 -350.8 37.9 -382.5 0L0 0Z" fill="#feb7d1"></path><path d="M0 255C-25.1 233.4 -50.2 211.8 -84.2 203.3C-118.1 194.7 -160.9 199.4 -180.3 180.3C-199.7 161.3 -195.6 118.6 -204.2 84.6C-212.7 50.6 -233.9 25.3 -255 0L0 0Z" fill="#f885b3"></path><path d="M0 127.5C-12.6 116.7 -25.1 105.9 -42.1 101.6C-59.1 97.4 -80.5 99.7 -90.2 90.2C-99.8 80.6 -97.8 59.3 -102.1 42.3C-106.4 25.3 -116.9 12.6 -127.5 0L0 0Z" fill="#f369a5"></path></g><g transform="translate(0, 600)"><path d="M0 -510C53.7 -474.8 107.4 -439.5 174.5 -421.3C241.6 -403.1 322 -401.8 360.6 -360.6C399.2 -319.4 396 -238.2 413.9 -171.4C431.8 -104.7 470.9 -52.3 510 0L0 0Z" fill="#ffe7ef"></path><path d="M0 -382.5C40.3 -356.1 80.6 -329.6 130.9 -316C181.2 -302.3 241.5 -301.4 270.5 -270.5C299.4 -239.6 297 -178.7 310.4 -128.6C323.9 -78.5 353.2 -39.3 382.5 0L0 0Z" fill="#feb7d1"></path><path d="M0 -255C26.9 -237.4 53.7 -219.8 87.3 -210.6C120.8 -201.5 161 -200.9 180.3 -180.3C199.6 -159.7 198 -119.1 206.9 -85.7C215.9 -52.3 235.5 -26.2 255 0L0 0Z" fill="#f885b3"></path><path d="M0 -127.5C13.4 -118.7 26.9 -109.9 43.6 -105.3C60.4 -100.8 80.5 -100.5 90.2 -90.2C99.8 -79.9 99 -59.6 103.5 -42.9C108 -26.2 117.7 -13.1 127.5 0L0 0Z" fill="#f369a5"></path></g></svg>